<svg xmlns="http://www.w3.org/2000/svg" viewBox="0 0 120 80" fill="none">
  <defs>
    <linearGradient id="hull" x1="0" y1="0" x2="1" y2="0">
      <stop offset="0%" stop-color="#7C2434"/>
      <stop offset="50%" stop-color="#C7A15A"/>
      <stop offset="100%" stop-color="#7C2434"/>
    </linearGradient>
  </defs>
  <path d="M10 52 Q30 62 60 62 Q90 62 110 52 L100 58 Q75 68 60 68 Q45 68 20 58 Z" fill="url(#hull)" opacity="0.9"/>
  <path d="M18 52 Q40 48 60 48 Q80 48 102 52" stroke="#E3CB94" stroke-width="1"/>
  <line x1="40" y1="48" x2="40" y2="18" stroke="#C7A15A" stroke-width="1.4"/>
  <line x1="72" y1="48" x2="72" y2="14" stroke="#C7A15A" stroke-width="1.4"/>
  <path d="M40 20 L62 28 L40 36 Z" fill="#E3CB94" opacity="0.75"/>
  <path d="M72 16 L96 26 L72 34 Z" fill="#E3CB94" opacity="0.7"/>
  <path d="M40 18 L28 28" stroke="#C7A15A" stroke-width="0.8"/>
  <path d="M72 14 L58 24" stroke="#C7A15A" stroke-width="0.8"/>
  <circle cx="60" cy="44" r="1.5" fill="#1D5D4F"/>
</svg>
